<?xml version="1.0" encoding="UTF-8"?>
<svg version="1.1" viewBox="0 0 492.94 492.94" xmlns="http://www.w3.org/2000/svg">
 <g transform="translate(-50.51 -43.222)">
  <path d="m296.98 43.222c-136.13 0-246.47 110.34-246.47 246.47s110.34 246.47 246.47 246.47 246.47-110.34 246.47-246.47-110.34-246.47-246.47-246.47zm-10.594 42.156v78.812c-22.058-0.67803-44.334-2.8054-66.812-6.3438 8.8366-22.26 19.415-44.79 31.625-67.594 11.394-2.6039 23.156-4.2615 35.188-4.875zm21.188 0c12.031 0.61347 23.793 2.2711 35.188 4.875 12.427 23.218 23.162 46.161 32.094 68.812-22.204 3.3028-44.628 5.0956-67.281 5.3438v-79.031zm-82.156 12.594c-10.159 18.946-19.082 37.68-26.719 56.188-14.876-2.9096-29.845-6.4217-44.906-10.562 20.239-19.839 44.568-35.521 71.625-45.625zm143.12 0c27.465 10.256 52.113 26.266 72.531 46.531-14.985 4.3874-30.086 8.0616-45.281 11-7.7583-18.944-16.852-38.126-27.25-57.531zm-229.78 62c17.589 5.0654 35.126 9.4224 52.625 12.969-13.37 36.27-21.735 71.665-24.844 106.16h-73.875c2.3003-45.113 19.209-86.369 46.094-119.12zm317.25 1c26.414 32.595 43.004 73.468 45.281 118.12h-73.875c-3.0557-33.906-11.181-68.687-24.156-104.31 17.643-3.5837 35.229-8.1707 52.75-13.812zm-243.56 15.875c24.752 4.1332 49.386 6.6695 73.938 7.5v94.75h-97.438c3.1824-33.334 11.151-67.43 23.5-102.25zm169.69 1.7188c12.001 34.219 19.745 67.75 22.875 100.53h-97.438v-94.469c24.964-0.16564 49.825-2.1606 74.562-6.0625zm-289.47 121.72h72.625c-1.0055 36.547 4.0479 72.044 15.469 106.44-14.308 3.2176-28.584 7.136-42.812 11.719-26.422-32.598-43.004-73.49-45.281-118.16zm94.938 0h98.781v94.469c-28.634 0.19-57.134 2.7774-85.469 7.9062-10.258-33.181-14.509-67.336-13.312-102.38zm119.97 0h98.781c1.2185 35.679-3.2393 70.436-13.906 104.19-28.425-5.2765-56.712-8.4848-84.875-9.4375v-94.75zm121.09 0h72.625c-2.2995 45.097-19.194 86.343-46.062 119.09-14.247-4.1082-28.474-7.7334-42.656-10.844 11.85-34.959 17.117-71.06 16.094-108.25zm-142.28 114.69v79.031c-15.568-0.79383-30.666-3.2916-45.125-7.375-3e-3 -7.4e-4 3e-3 -0.0305 0-0.0312-13.993-21.025-25.123-42.52-33.562-64.438 25.921-4.4826 52.15-6.8967 78.688-7.1875zm21.188 0.2188c25.776 0.79231 51.837 3.5519 78.188 8.25-8.3848 21.488-19.392 42.558-33.125 63.188-14.441 4.0738-29.515 6.5822-45.062 7.375v-78.812zm-119.69 10.812c6.9836 17.173 15.618 34.056 25.906 50.656-22.815-10.168-43.415-24.421-60.906-41.781 11.606-3.3936 23.268-6.3455 35-8.875zm217.66 1.3125c11.482 2.4586 23.033 5.3113 34.625 8.5-17.291 16.945-37.587 30.855-60 40.844 10.026-16.175 18.489-32.625 25.375-49.344z" fill="#000940"/>
 </g>
</svg>
